# Blender 4.4.3
# www.blender.org
mtllib walls.mtl
o group_4.002
v 0.000000 1.122362 -2.540000
v 2.540000 0.000000 -2.540000
v 0.000000 0.000000 -2.540000
v 2.540000 1.122362 -2.540000
v 0.000000 0.000000 -2.540000
v 0.047291 0.000000 -2.467309
v 0.000000 0.000000 0.000000
v 2.540000 0.000000 -2.540000
v 2.467309 0.000000 -2.467309
v 2.467309 0.000000 -0.072691
v 1.413372 0.000000 -0.023345
v 1.413372 0.000000 -0.072691
v 1.413372 0.000000 0.000000
v 2.540000 0.000000 0.000000
v 0.047291 0.000000 -0.072691
v 0.929184 0.000000 0.000000
v 0.929184 0.000000 -0.072691
v 0.929184 0.000000 -0.023345
v 0.000000 1.122362 -2.540000
v 0.000000 0.000000 0.000000
v 0.000000 1.122362 0.000000
v 0.000000 0.000000 -2.540000
v 0.072691 1.122362 -2.467309
v 2.540000 1.122362 -2.540000
v 0.000000 1.122362 -2.540000
v 2.467309 1.122362 -2.467309
v 2.540000 0.000000 -2.540000
v 2.540000 1.122362 0.000000
v 2.540000 0.000000 0.000000
v 2.540000 1.122362 -2.540000
v 2.540000 1.122362 0.000000
v 1.413372 0.000000 0.000000
v 2.540000 0.000000 0.000000
v 1.413372 0.784225 0.000000
v 0.929184 0.784225 0.000000
v 0.000000 0.000000 0.000000
v 0.929184 0.000000 0.000000
v 0.000000 1.122362 0.000000
v 1.413372 0.784225 -0.023345
v 1.413372 0.000000 0.000000
v 1.413372 0.784225 0.000000
v 1.413372 0.000000 -0.023345
v 1.413372 0.784225 -0.072691
v 1.413372 0.000000 -0.072691
v 0.047291 1.122362 -0.072691
v 0.929184 0.000000 -0.072691
v 0.047291 0.000000 -0.072691
v 0.929184 0.784225 -0.072691
v 1.413372 0.784225 -0.072691
v 2.467309 0.000000 -0.072691
v 1.413372 0.000000 -0.072691
v 2.467309 1.122362 -0.072691
v 0.072691 1.122362 -0.072691
v 2.467309 1.122362 -2.467309
v 2.467309 0.000000 -0.072691
v 2.467309 1.122362 -0.072691
v 2.467309 0.000000 -2.467309
v 2.467309 1.122362 -2.467309
v 0.047291 0.000000 -2.467309
v 2.467309 0.000000 -2.467309
v 0.047291 1.122362 -2.467309
v 0.072691 1.122362 -2.467309
v 0.047291 0.000000 -2.467309
v 0.047291 1.122362 -0.072691
v 0.047291 0.000000 -0.072691
v 0.047291 1.122362 -2.467309
v 0.929184 0.000000 -0.072691
v 0.929184 0.784225 -0.023345
v 0.929184 0.000000 -0.023345
v 0.929184 0.784225 -0.072691
v 0.929184 0.784225 0.000000
v 0.929184 0.000000 0.000000
v 0.000000 1.122362 0.000000
v 0.047291 1.122362 -0.072691
v 0.072691 1.122362 -0.072691
v 0.047291 1.122362 -2.467309
v 2.540000 1.122362 0.000000
v 2.467309 1.122362 -0.072691
v 1.413372 0.784225 -0.023345
v 0.929184 0.784225 0.000000
v 0.929184 0.784225 -0.023345
v 1.413372 0.784225 0.000000
v 1.413372 0.784225 -0.072691
v 0.929184 0.784225 -0.072691
vn -0.0000 -0.0000 -1.0000
vn -0.0000 -1.0000 -0.0000
vn -1.0000 -0.0000 -0.0000
vn -0.0000 1.0000 -0.0000
vn 1.0000 -0.0000 -0.0000
vn -0.0000 -0.0000 1.0000
vt 0.000000 0.748242
vt -1.693333 0.000000
vt 0.000000 0.000000
vt -1.693333 0.748242
vt 0.000000 1.693333
vt -0.031527 1.644873
vt -1.693333 1.693333
vt -1.644873 1.644873
vt -1.644873 0.048460
vt -0.942248 0.015564
vt -0.942248 0.048460
vt -0.942248 0.000000
vt -0.031527 0.048460
vt -0.619456 0.000000
vt -0.619456 0.048460
vt -0.619456 0.015564
vt 0.048460 1.644873
vt 1.693333 1.693333
vt 1.644873 1.644873
vt 1.693333 0.000000
vt 1.693333 0.748242
vt 0.942248 0.000000
vt 0.942248 0.522817
vt 0.619456 0.522817
vt 0.619456 0.000000
vt -0.015564 0.522817
vt 0.000000 0.522817
vt -0.015564 0.000000
vt -0.048460 0.522817
vt -0.048460 0.000000
vt -0.031527 0.748242
vt -0.619456 -0.000000
vt -0.031527 -0.000000
vt -0.619456 0.522817
vt -0.942248 0.522817
vt -1.644873 -0.000000
vt -0.942248 -0.000000
vt -1.644873 0.748242
vt -0.048460 0.748242
vt -1.644873 0.000000
vt 1.644873 0.748242
vt 0.031527 0.000000
vt 1.644873 0.000000
vt 0.031527 0.748242
vt 0.048460 0.748242
vt 0.048460 0.000000
vt 0.015564 0.522817
vt 0.015564 0.000000
vt 0.048460 0.522817
vt 0.031527 0.048460
vt 0.048460 0.048460
vt 0.031527 1.644873
vt 1.644873 0.048460
s 0
usemtl Brick_21_1K.001
f 1/1/1 2/2/1 3/3/1
f 2/2/1 1/1/1 4/4/1
f 5/5/2 6/6/2 7/3/2
f 6/6/2 5/5/2 8/7/2
f 6/6/2 8/7/2 9/8/2
f 9/8/2 8/7/2 10/9/2
f 10/9/2 11/10/2 12/11/2
f 11/10/2 10/9/2 13/12/2
f 13/12/2 10/9/2 14/2/2
f 14/2/2 10/9/2 8/7/2
f 7/3/2 15/13/2 16/14/2
f 15/13/2 7/3/2 6/6/2
f 16/14/2 15/13/2 17/15/2
f 16/14/2 17/15/2 18/16/2
f 19/4/3 20/3/3 21/1/3
f 20/3/3 19/4/3 22/2/3
f 23/17/4 24/18/4 25/5/4
f 24/18/4 23/17/4 26/19/4
f 27/20/5 28/1/5 29/3/5
f 28/1/5 27/20/5 30/21/5
f 31/21/6 32/22/6 33/20/6
f 32/22/6 31/21/6 34/23/6
f 34/23/6 31/21/6 35/24/6
f 35/24/6 36/3/6 37/25/6
f 36/3/6 35/24/6 38/1/6
f 38/1/6 35/24/6 31/21/6
f 39/26/3 40/3/3 41/27/3
f 40/3/3 39/26/3 42/28/3
f 43/29/3 42/28/3 39/26/3
f 42/28/3 43/29/3 44/30/3
f 45/31/1 46/32/1 47/33/1
f 46/32/1 45/31/1 48/34/1
f 48/34/1 45/31/1 49/35/1
f 49/35/1 50/36/1 51/37/1
f 50/36/1 49/35/1 52/38/1
f 52/38/1 49/35/1 45/31/1
f 52/38/1 45/31/1 53/39/1
f 54/38/3 55/30/3 56/39/3
f 55/30/3 54/38/3 57/40/3
f 58/41/6 59/42/6 60/43/6
f 59/42/6 58/41/6 61/44/6
f 61/44/6 58/41/6 62/45/6
f 63/43/5 64/45/5 65/46/5
f 64/45/5 63/43/5 66/41/5
f 67/46/5 68/47/5 69/48/5
f 68/47/5 67/46/5 70/49/5
f 69/48/5 71/27/5 72/3/5
f 71/27/5 69/48/5 68/47/5
f 73/3/4 74/50/4 25/5/4
f 74/50/4 73/3/4 75/51/4
f 25/5/4 76/52/4 23/17/4
f 76/52/4 25/5/4 74/50/4
f 77/20/4 26/19/4 78/53/4
f 26/19/4 77/20/4 24/18/4
f 79/10/2 80/14/2 81/16/2
f 80/14/2 79/10/2 82/12/2
f 77/20/4 75/51/4 73/3/4
f 75/51/4 77/20/4 78/53/4
f 83/11/2 81/16/2 84/15/2
f 81/16/2 83/11/2 79/10/2
