# Blender 4.4.3
# www.blender.org
mtllib door.mtl
o group_3
v 1.384985 0.392112 -0.045648
v 1.396447 0.259113 -0.045648
v 1.384985 0.259113 -0.045648
v 1.396447 0.392112 -0.045648
v 1.384985 0.535112 -0.045648
v 1.396447 0.535112 -0.045648
v 1.396447 0.535112 -0.045648
v 1.384985 0.535112 -0.045648
v 1.396447 0.392112 -0.045648
v 1.384985 0.392112 -0.045648
v 1.396447 0.259113 -0.045648
v 1.384985 0.259113 -0.045648
v 1.384985 0.535112 -0.045648
v 1.384985 0.528952 -0.051809
v 1.384985 0.392112 -0.045648
v 1.384985 0.535112 -0.072648
v 1.384985 0.528952 -0.066488
v 1.384985 0.392112 -0.066488
v 1.384985 0.392112 -0.072648
v 1.384985 0.392112 -0.051809
v 1.384985 0.528952 -0.051809
v 1.384985 0.392112 -0.045648
v 1.384985 0.392112 -0.051809
v 1.384985 0.392112 -0.072648
v 1.384985 0.535112 -0.072648
v 1.384985 0.392112 -0.066488
v 1.384985 0.528952 -0.066488
v 1.384985 0.535112 -0.045648
v 1.407909 0.000000 -0.045648
v 1.407909 0.392112 -0.045648
v 1.362062 0.045847 -0.045648
v 0.969568 0.045847 -0.045648
v 1.362062 0.738378 -0.045648
v 1.362062 0.392112 -0.045648
v 0.923721 0.000000 -0.045648
v 0.923721 0.784225 -0.045648
v 0.969568 0.738378 -0.045648
v 1.407909 0.784225 -0.045648
v 1.362062 0.392112 -0.045648
v 1.362062 0.045847 -0.045648
v 0.923721 0.784225 -0.045648
v 1.362062 0.738378 -0.045648
v 1.407909 0.784225 -0.045648
v 1.407909 0.392112 -0.045648
v 0.969568 0.738378 -0.045648
v 0.969568 0.045847 -0.045648
v 0.923721 0.000000 -0.045648
v 1.407909 0.000000 -0.045648
v 1.396447 0.535112 -0.045648
v 1.384985 0.535112 -0.072648
v 1.384985 0.535112 -0.045648
v 1.396447 0.535112 -0.072648
v 1.396447 0.535112 -0.072648
v 1.396447 0.535112 -0.045648
v 1.384985 0.535112 -0.072648
v 1.384985 0.535112 -0.045648
v 1.396447 0.259113 -0.045648
v 1.396447 0.265273 -0.051809
v 1.396447 0.392112 -0.045648
v 1.396447 0.259113 -0.072648
v 1.396447 0.535112 -0.045648
v 1.396447 0.265273 -0.066488
v 1.396447 0.528952 -0.066488
v 1.396447 0.528952 -0.051809
v 1.396447 0.535112 -0.072648
v 1.396447 0.392112 -0.051809
v 1.396447 0.259113 -0.072648
v 1.396447 0.528952 -0.066488
v 1.396447 0.535112 -0.072648
v 1.396447 0.528952 -0.051809
v 1.396447 0.392112 -0.051809
v 1.396447 0.265273 -0.051809
v 1.396447 0.535112 -0.045648
v 1.396447 0.265273 -0.066488
v 1.396447 0.392112 -0.045648
v 1.396447 0.259113 -0.045648
v 1.396447 0.259113 -0.072648
v 1.384985 0.259113 -0.045648
v 1.384985 0.259113 -0.072648
v 1.396447 0.259113 -0.045648
v 1.396447 0.259113 -0.045648
v 1.396447 0.259113 -0.072648
v 1.384985 0.259113 -0.045648
v 1.384985 0.259113 -0.072648
v 1.384985 0.265273 -0.066488
v 1.384985 0.259113 -0.045648
v 1.384985 0.265273 -0.051809
v 1.384985 0.259113 -0.072648
v 1.384985 0.265273 -0.066488
v 1.384985 0.259113 -0.072648
v 1.384985 0.265273 -0.051809
v 1.384985 0.259113 -0.045648
v 1.396447 0.528952 -0.066488
v 1.384985 0.265273 -0.066488
v 1.396447 0.265273 -0.066488
v 1.384985 0.392112 -0.066488
v 1.384985 0.528952 -0.066488
v 1.384985 0.528952 -0.066488
v 1.396447 0.528952 -0.066488
v 1.384985 0.392112 -0.066488
v 1.384985 0.265273 -0.066488
v 1.396447 0.265273 -0.066488
v 1.396447 0.528952 -0.066488
v 1.384985 0.528952 -0.051809
v 1.384985 0.528952 -0.066488
v 1.396447 0.528952 -0.051809
v 1.396447 0.528952 -0.051809
v 1.396447 0.528952 -0.066488
v 1.384985 0.528952 -0.051809
v 1.384985 0.528952 -0.066488
v 1.384985 0.528952 -0.051809
v 1.396447 0.392112 -0.051809
v 1.384985 0.392112 -0.051809
v 1.396447 0.528952 -0.051809
v 1.396447 0.528952 -0.051809
v 1.384985 0.528952 -0.051809
v 1.396447 0.392112 -0.051809
v 1.384985 0.392112 -0.051809
v 1.384985 0.392112 -0.072648
v 1.396447 0.259113 -0.072648
v 1.384985 0.259113 -0.072648
v 1.396447 0.535112 -0.072648
v 1.384985 0.535112 -0.072648
v 1.384985 0.535112 -0.072648
v 1.384985 0.392112 -0.072648
v 1.396447 0.535112 -0.072648
v 1.396447 0.259113 -0.072648
v 1.384985 0.259113 -0.072648
v 1.407909 0.000000 -0.045648
v 1.407909 0.784225 0.000000
v 1.407909 0.000000 0.000000
v 1.407909 0.784225 -0.045648
v 1.407909 0.392112 -0.045648
v 1.407909 0.392112 -0.045648
v 1.407909 0.000000 -0.045648
v 1.407909 0.784225 -0.045648
v 1.407909 0.784225 0.000000
v 1.407909 0.000000 0.000000
v 1.407909 0.000000 -0.045648
v 0.923721 0.000000 0.000000
v 0.923721 0.000000 -0.045648
v 1.407909 0.000000 0.000000
v 1.407909 0.000000 0.000000
v 1.407909 0.000000 -0.045648
v 0.923721 0.000000 0.000000
v 0.923721 0.000000 -0.045648
v 0.923721 0.784225 -0.045648
v 0.923721 0.000000 0.000000
v 0.923721 0.784225 0.000000
v 0.923721 0.000000 -0.045648
v 0.923721 0.000000 -0.045648
v 0.923721 0.784225 -0.045648
v 0.923721 0.000000 0.000000
v 0.923721 0.784225 0.000000
v 1.407909 0.784225 0.000000
v 0.923721 0.784225 -0.045648
v 0.923721 0.784225 0.000000
v 1.407909 0.784225 -0.045648
v 1.407909 0.784225 -0.045648
v 1.407909 0.784225 0.000000
v 0.923721 0.784225 -0.045648
v 0.923721 0.784225 0.000000
v 1.362062 0.738378 -0.045648
v 1.362062 0.045847 -0.034648
v 1.362062 0.738378 -0.034648
v 1.362062 0.045847 -0.045648
v 1.362062 0.392112 -0.045648
v 1.362062 0.392112 -0.045648
v 1.362062 0.738378 -0.045648
v 1.362062 0.045847 -0.045648
v 1.362062 0.045847 -0.034648
v 1.362062 0.738378 -0.034648
v 1.362062 0.738378 -0.045648
v 0.969568 0.738378 -0.034648
v 0.969568 0.738378 -0.045648
v 1.362062 0.738378 -0.034648
v 1.362062 0.738378 -0.034648
v 1.362062 0.738378 -0.045648
v 0.969568 0.738378 -0.034648
v 0.969568 0.738378 -0.045648
v 0.969568 0.045847 -0.045648
v 0.969568 0.738378 -0.034648
v 0.969568 0.045847 -0.034648
v 0.969568 0.738378 -0.045648
v 0.969568 0.738378 -0.045648
v 0.969568 0.045847 -0.045648
v 0.969568 0.738378 -0.034648
v 0.969568 0.045847 -0.034648
v 1.362062 0.045847 -0.034648
v 0.969568 0.045847 -0.045648
v 0.969568 0.045847 -0.034648
v 1.362062 0.045847 -0.045648
v 1.362062 0.045847 -0.045648
v 1.362062 0.045847 -0.034648
v 0.969568 0.045847 -0.045648
v 0.969568 0.045847 -0.034648
v 1.396447 0.265273 -0.051809
v 1.384985 0.265273 -0.051809
v 1.396447 0.265273 -0.051809
v 1.384985 0.265273 -0.051809
v 1.396447 0.265273 -0.051809
v 1.384985 0.265273 -0.066488
v 1.384985 0.265273 -0.051809
v 1.396447 0.265273 -0.066488
v 1.396447 0.265273 -0.066488
v 1.396447 0.265273 -0.051809
v 1.384985 0.265273 -0.066488
v 1.384985 0.265273 -0.051809
v 1.407909 0.784225 0.000000
v 0.923721 0.000000 0.000000
v 1.407909 0.000000 0.000000
v 0.923721 0.784225 0.000000
v 0.923721 0.784225 0.000000
v 1.407909 0.784225 0.000000
v 0.923721 0.000000 0.000000
v 1.407909 0.000000 0.000000
v 0.969568 0.045847 -0.034648
v 1.015510 0.091789 -0.034648
v 1.362062 0.045847 -0.034648
v 0.969568 0.738378 -0.034648
v 1.015510 0.692436 -0.034648
v 1.316120 0.692436 -0.034648
v 1.316120 0.091789 -0.034648
v 1.362062 0.738378 -0.034648
v 0.969568 0.738378 -0.034648
v 1.316120 0.692436 -0.034648
v 1.362062 0.738378 -0.034648
v 1.316120 0.091789 -0.034648
v 1.015510 0.091789 -0.034648
v 1.362062 0.045847 -0.034648
v 1.015510 0.692436 -0.034648
v 0.969568 0.045847 -0.034648
vn -0.0000 -0.0000 -1.0000
vn -0.0000 -0.0000 1.0000
vn -1.0000 -0.0000 -0.0000
vn 1.0000 -0.0000 -0.0000
vn -0.0000 1.0000 -0.0000
vn -0.0000 -1.0000 -0.0000
vt -0.252222 0.214410
vt -0.258490 0.141684
vt -0.252222 0.141684
vt -0.258490 0.214410
vt -0.252222 0.292603
vt -0.258490 0.292603
vt -0.011483 0.292603
vt -0.014851 0.289234
vt -0.011483 0.214410
vt -0.026247 0.292603
vt -0.022878 0.289234
vt -0.022878 0.214410
vt -0.026247 0.214410
vt -0.014851 0.214410
vt -0.264757 0.000000
vt -0.264757 0.214410
vt -0.239687 0.025070
vt -0.025070 0.025070
vt -0.239687 0.403750
vt -0.239687 0.214410
vt 0.000000 0.000000
vt 0.000000 0.428819
vt -0.025070 0.403750
vt -0.264757 0.428819
vt 0.258490 0.011483
vt 0.252222 0.026247
vt 0.252222 0.011483
vt 0.258490 0.026247
vt 0.011483 0.141684
vt 0.014851 0.145053
vt 0.011483 0.214410
vt 0.026247 0.141684
vt 0.011483 0.292603
vt 0.022878 0.145053
vt 0.022878 0.289234
vt 0.014851 0.289234
vt 0.026247 0.292603
vt 0.014851 0.214410
vt -0.258490 0.026247
vt -0.252222 0.011483
vt -0.252222 0.026247
vt -0.258490 0.011483
vt -0.022878 0.145053
vt -0.011483 0.141684
vt -0.014851 0.145053
vt -0.026247 0.141684
vt 0.258490 0.289234
vt 0.252222 0.145053
vt 0.258490 0.145053
vt 0.252222 0.214410
vt 0.252222 0.289234
vt -0.258490 0.022878
vt -0.252222 0.014851
vt -0.252222 0.022878
vt -0.258490 0.014851
vt -0.252222 0.289234
vt -0.258490 0.289234
vt 0.011483 0.000000
vt -0.013478 0.428819
vt -0.013478 0.000000
vt 0.011483 0.428819
vt -0.264757 0.011483
vt 0.000000 -0.013478
vt 0.000000 0.011483
vt -0.264757 -0.013478
vt -0.011483 0.428819
vt 0.013478 0.000000
vt 0.013478 0.428819
vt -0.011483 0.000000
vt 0.264757 -0.013478
vt 0.264757 0.011483
vt -0.011483 0.403750
vt -0.005468 0.025070
vt -0.005468 0.403750
vt -0.011483 0.025070
vt -0.239687 0.011483
vt -0.025070 0.005468
vt -0.025070 0.011483
vt -0.239687 0.005468
vt 0.011483 0.025070
vt 0.005468 0.403750
vt 0.005468 0.025070
vt 0.011483 0.403750
vt 0.239687 0.005468
vt 0.025070 0.011483
vt 0.025070 0.005468
vt 0.239687 0.011483
vt -0.258490 0.145053
vt -0.252222 0.145053
vt 0.258490 0.014851
vt 0.252222 0.022878
vt 0.252222 0.014851
vt 0.258490 0.022878
vt 0.264757 0.428819
vt 0.264757 0.000000
vt -0.050191 0.050191
vt -0.050191 0.378629
vt -0.214566 0.378629
vt -0.214566 0.050191
s 0
usemtl Wood_Veneer_01
f 1/1/1 2/2/1 3/3/1
f 2/2/1 1/1/1 4/4/1
f 4/4/1 1/1/1 5/5/1
f 4/4/1 5/5/1 6/6/1
f 7/6/2 8/5/2 9/4/2
f 8/5/2 10/1/2 9/4/2
f 9/4/2 10/1/2 11/2/2
f 12/3/2 11/2/2 10/1/2
f 13/7/3 14/8/3 15/9/3
f 14/8/3 13/7/3 16/10/3
f 14/8/3 16/10/3 17/11/3
f 17/11/3 16/10/3 18/12/3
f 18/12/3 16/10/3 19/13/3
f 20/14/3 15/9/3 14/8/3
f 21/8/4 22/9/4 23/14/4
f 24/13/4 25/10/4 26/12/4
f 26/12/4 25/10/4 27/11/4
f 27/11/4 25/10/4 21/8/4
f 25/10/4 28/7/4 21/8/4
f 22/9/4 21/8/4 28/7/4
f 29/15/1 2/2/1 30/16/1
f 2/2/1 29/15/1 31/17/1
f 31/17/1 29/15/1 32/18/1
f 2/2/1 31/17/1 3/3/1
f 30/16/1 2/2/1 4/4/1
f 33/19/1 1/1/1 34/20/1
f 1/1/1 33/19/1 5/5/1
f 5/5/1 33/19/1 6/6/1
f 35/21/1 32/18/1 29/15/1
f 32/18/1 35/21/1 36/22/1
f 32/18/1 36/22/1 37/23/1
f 37/23/1 36/22/1 33/19/1
f 6/6/1 30/16/1 4/4/1
f 30/16/1 6/6/1 38/24/1
f 38/24/1 6/6/1 33/19/1
f 38/24/1 33/19/1 36/22/1
f 34/20/1 3/3/1 31/17/1
f 3/3/1 34/20/1 1/1/1
f 10/1/2 39/20/2 12/3/2
f 40/17/2 12/3/2 39/20/2
f 41/22/2 42/19/2 43/24/2
f 42/19/2 7/6/2 43/24/2
f 43/24/2 7/6/2 44/16/2
f 9/4/2 44/16/2 7/6/2
f 42/19/2 41/22/2 45/23/2
f 45/23/2 41/22/2 46/18/2
f 41/22/2 47/21/2 46/18/2
f 48/15/2 46/18/2 47/21/2
f 7/6/2 42/19/2 8/5/2
f 8/5/2 42/19/2 10/1/2
f 39/20/2 10/1/2 42/19/2
f 9/4/2 11/2/2 44/16/2
f 12/3/2 40/17/2 11/2/2
f 46/18/2 48/15/2 40/17/2
f 40/17/2 48/15/2 11/2/2
f 44/16/2 11/2/2 48/15/2
f 49/25/5 50/26/5 51/27/5
f 50/26/5 49/25/5 52/28/5
f 53/28/6 54/25/6 55/26/6
f 56/27/6 55/26/6 54/25/6
f 57/29/4 58/30/4 59/31/4
f 58/30/4 57/29/4 60/32/4
f 59/31/4 58/30/4 61/33/4
f 58/30/4 60/32/4 62/34/4
f 62/34/4 60/32/4 63/35/4
f 61/33/4 64/36/4 65/37/4
f 64/36/4 61/33/4 58/30/4
f 64/36/4 58/30/4 66/38/4
f 65/37/4 64/36/4 63/35/4
f 65/37/4 63/35/4 60/32/4
f 67/32/3 68/35/3 69/37/3
f 68/35/3 70/36/3 69/37/3
f 71/38/3 72/30/3 70/36/3
f 72/30/3 73/33/3 70/36/3
f 69/37/3 70/36/3 73/33/3
f 68/35/3 67/32/3 74/34/3
f 74/34/3 67/32/3 72/30/3
f 73/33/3 72/30/3 75/31/3
f 67/32/3 76/29/3 72/30/3
f 75/31/3 72/30/3 76/29/3
f 77/39/6 78/40/6 79/41/6
f 78/40/6 77/39/6 80/42/6
f 81/42/5 82/39/5 83/40/5
f 84/41/5 83/40/5 82/39/5
f 19/13/3 85/43/3 18/12/3
f 20/14/3 86/44/3 15/9/3
f 86/44/3 20/14/3 87/45/3
f 86/44/3 87/45/3 88/46/3
f 88/46/3 87/45/3 85/43/3
f 88/46/3 85/43/3 19/13/3
f 24/13/4 89/43/4 90/46/4
f 89/43/4 91/45/4 90/46/4
f 90/46/4 91/45/4 92/44/4
f 91/45/4 23/14/4 92/44/4
f 22/9/4 92/44/4 23/14/4
f 26/12/4 89/43/4 24/13/4
f 93/47/2 94/48/2 95/49/2
f 94/48/2 93/47/2 96/50/2
f 96/50/2 93/47/2 97/51/2
f 98/51/1 99/47/1 100/50/1
f 100/50/1 99/47/1 101/48/1
f 102/49/1 101/48/1 99/47/1
f 103/52/6 104/53/6 105/54/6
f 104/53/6 103/52/6 106/55/6
f 107/55/5 108/52/5 109/53/5
f 110/54/5 109/53/5 108/52/5
f 111/56/1 112/4/1 113/1/1
f 112/4/1 111/56/1 114/57/1
f 115/57/2 116/56/2 117/4/2
f 118/1/2 117/4/2 116/56/2
f 119/1/1 120/2/1 121/3/1
f 120/2/1 119/1/1 122/6/1
f 122/6/1 119/1/1 123/5/1
f 124/5/2 125/1/2 126/6/2
f 126/6/2 125/1/2 127/2/2
f 128/3/2 127/2/2 125/1/2
f 129/58/4 130/59/4 131/60/4
f 130/59/4 129/58/4 132/61/4
f 132/61/4 129/58/4 133/31/4
f 134/31/3 135/58/3 136/61/3
f 136/61/3 135/58/3 137/59/3
f 138/60/3 137/59/3 135/58/3
f 139/62/6 140/63/6 141/64/6
f 140/63/6 139/62/6 142/65/6
f 143/65/5 144/62/5 145/63/5
f 146/64/5 145/63/5 144/62/5
f 147/66/3 148/67/3 149/68/3
f 148/67/3 147/66/3 150/69/3
f 151/69/4 152/66/4 153/67/4
f 154/68/4 153/67/4 152/66/4
f 155/70/5 156/64/5 157/63/5
f 156/64/5 155/70/5 158/71/5
f 159/71/6 160/70/6 161/64/6
f 162/63/6 161/64/6 160/70/6
f 163/72/3 164/73/3 165/74/3
f 164/73/3 163/72/3 166/75/3
f 166/75/3 163/72/3 167/9/3
f 168/9/4 169/72/4 170/75/4
f 170/75/4 169/72/4 171/73/4
f 172/74/4 171/73/4 169/72/4
f 173/76/6 174/77/6 175/78/6
f 174/77/6 173/76/6 176/79/6
f 177/79/5 178/76/5 179/77/5
f 180/78/5 179/77/5 178/76/5
f 181/80/4 182/81/4 183/82/4
f 182/81/4 181/80/4 184/83/4
f 185/83/3 186/80/3 187/81/3
f 188/82/3 187/81/3 186/80/3
f 189/84/5 190/85/5 191/86/5
f 190/85/5 189/84/5 192/87/5
f 193/87/6 194/84/6 195/85/6
f 196/86/6 195/85/6 194/84/6
f 113/1/1 197/88/1 198/89/1
f 197/88/1 113/1/1 112/4/1
f 117/4/2 118/1/2 199/88/2
f 200/89/2 199/88/2 118/1/2
f 201/90/5 202/91/5 203/92/5
f 202/91/5 201/90/5 204/93/5
f 205/93/6 206/90/6 207/91/6
f 208/92/6 207/91/6 206/90/6
f 209/94/2 210/21/2 211/95/2
f 210/21/2 209/94/2 212/22/2
f 213/22/1 214/94/1 215/21/1
f 216/95/1 215/21/1 214/94/1
f 217/18/1 218/96/1 219/17/1
f 218/96/1 217/18/1 220/23/1
f 218/96/1 220/23/1 221/97/1
f 221/97/1 220/23/1 222/98/1
f 219/17/1 223/99/1 224/19/1
f 223/99/1 219/17/1 218/96/1
f 224/19/1 223/99/1 222/98/1
f 224/19/1 222/98/1 220/23/1
f 225/23/2 226/98/2 227/19/2
f 226/98/2 228/99/2 227/19/2
f 229/96/2 230/17/2 228/99/2
f 227/19/2 228/99/2 230/17/2
f 226/98/2 225/23/2 231/97/2
f 231/97/2 225/23/2 229/96/2
f 225/23/2 232/18/2 229/96/2
f 230/17/2 229/96/2 232/18/2
o group_3.001
v 1.015510 0.692436 -0.045648
v 1.316120 0.091789 -0.045648
v 1.015510 0.091789 -0.045648
v 1.316120 0.692436 -0.045648
v 1.316120 0.692436 -0.045648
v 1.015510 0.692436 -0.045648
v 1.316120 0.091789 -0.045648
v 1.015510 0.091789 -0.045648
v 1.316120 0.091789 -0.045648
v 1.316120 0.692436 -0.034648
v 1.316120 0.091789 -0.034648
v 1.316120 0.692436 -0.045648
v 1.316120 0.692436 -0.045648
v 1.316120 0.091789 -0.045648
v 1.316120 0.692436 -0.034648
v 1.316120 0.091789 -0.034648
v 1.316120 0.091789 -0.045648
v 1.015510 0.091789 -0.034648
v 1.015510 0.091789 -0.045648
v 1.316120 0.091789 -0.034648
v 1.316120 0.091789 -0.034648
v 1.316120 0.091789 -0.045648
v 1.015510 0.091789 -0.034648
v 1.015510 0.091789 -0.045648
v 1.015510 0.692436 -0.045648
v 1.015510 0.091789 -0.034648
v 1.015510 0.692436 -0.034648
v 1.015510 0.091789 -0.045648
v 1.015510 0.091789 -0.045648
v 1.015510 0.692436 -0.045648
v 1.015510 0.091789 -0.034648
v 1.015510 0.692436 -0.034648
v 1.316120 0.692436 -0.034648
v 1.015510 0.692436 -0.045648
v 1.015510 0.692436 -0.034648
v 1.316120 0.692436 -0.045648
v 1.316120 0.692436 -0.045648
v 1.316120 0.692436 -0.034648
v 1.015510 0.692436 -0.045648
v 1.015510 0.692436 -0.034648
vn -0.0000 -0.0000 -1.0000
vn -0.0000 -0.0000 1.0000
vn 1.0000 -0.0000 -0.0000
vn -1.0000 -0.0000 -0.0000
vn -0.0000 -1.0000 -0.0000
vn -0.0000 1.0000 -0.0000
vt -0.050191 0.378629
vt -0.214566 0.050191
vt -0.050191 0.050191
vt -0.214566 0.378629
vt 0.011483 0.050191
vt 0.005468 0.378629
vt 0.005468 0.050191
vt 0.011483 0.378629
vt -0.214566 0.011483
vt -0.050191 0.005468
vt -0.050191 0.011483
vt -0.214566 0.005468
vt -0.011483 0.378629
vt -0.005468 0.050191
vt -0.005468 0.378629
vt -0.011483 0.050191
vt 0.214566 0.005468
vt 0.050191 0.011483
vt 0.050191 0.005468
vt 0.214566 0.011483
s 0
usemtl Wood_Veneer_01
f 233/100/7 234/101/7 235/102/7
f 234/101/7 233/100/7 236/103/7
f 237/103/8 238/100/8 239/101/8
f 240/102/8 239/101/8 238/100/8
f 241/104/9 242/105/9 243/106/9
f 242/105/9 241/104/9 244/107/9
f 245/107/10 246/104/10 247/105/10
f 248/106/10 247/105/10 246/104/10
f 249/108/11 250/109/11 251/110/11
f 250/109/11 249/108/11 252/111/11
f 253/111/12 254/108/12 255/109/12
f 256/110/12 255/109/12 254/108/12
f 257/112/10 258/113/10 259/114/10
f 258/113/10 257/112/10 260/115/10
f 261/115/9 262/112/9 263/113/9
f 264/114/9 263/113/9 262/112/9
f 265/116/12 266/117/12 267/118/12
f 266/117/12 265/116/12 268/119/12
f 269/119/11 270/116/11 271/117/11
f 272/118/11 271/117/11 270/116/11
o group_4.001
v 1.413372 0.000000 -0.023345
v 0.929184 0.000000 -0.023345
l 274 273
