# Blender 4.4.3
# www.blender.org
mtllib door.mtl
o group_4
v 1.413909 0.000000 -0.045648
v 0.929721 0.000000 -0.024648
v 0.929721 0.000000 -0.045648
v 1.413909 0.000000 -0.024648
v 1.413909 0.000000 -0.024648
v 1.413909 0.000000 -0.045648
v 0.929721 0.000000 -0.024648
v 0.929721 0.000000 -0.045648
v 0.929721 0.784225 -0.045648
v 0.929721 0.000000 -0.024648
v 0.929721 0.784225 -0.024648
v 0.929721 0.000000 -0.045648
v 0.929721 0.000000 -0.045648
v 0.929721 0.784225 -0.045648
v 0.929721 0.000000 -0.024648
v 0.929721 0.784225 -0.024648
v 1.390985 0.392112 -0.045648
v 1.402447 0.259113 -0.045648
v 1.390985 0.259113 -0.045648
v 1.402447 0.392112 -0.045648
v 1.390985 0.535112 -0.045648
v 1.402447 0.535112 -0.045648
v 1.413909 0.000000 -0.045648
v 1.413909 0.392112 -0.045648
v 1.368062 0.045847 -0.045648
v 0.975568 0.045847 -0.045648
v 1.368062 0.738378 -0.045648
v 1.368062 0.392112 -0.045648
v 0.929721 0.000000 -0.045648
v 0.929721 0.784225 -0.045648
v 0.975568 0.738378 -0.045648
v 1.413909 0.784225 -0.045648
v 1.390985 0.392112 -0.045648
v 1.368062 0.392112 -0.045648
v 1.390985 0.259113 -0.045648
v 1.368062 0.045847 -0.045648
v 0.929721 0.784225 -0.045648
v 1.368062 0.738378 -0.045648
v 1.413909 0.784225 -0.045648
v 1.402447 0.535112 -0.045648
v 1.413909 0.392112 -0.045648
v 1.402447 0.392112 -0.045648
v 0.975568 0.738378 -0.045648
v 0.975568 0.045847 -0.045648
v 0.929721 0.000000 -0.045648
v 1.413909 0.000000 -0.045648
v 1.390985 0.535112 -0.045648
v 1.402447 0.259113 -0.045648
v 1.413909 0.000000 -0.045648
v 1.413909 0.784225 -0.024648
v 1.413909 0.000000 -0.024648
v 1.413909 0.784225 -0.045648
v 1.413909 0.392112 -0.045648
v 1.413909 0.392112 -0.045648
v 1.413909 0.000000 -0.045648
v 1.413909 0.784225 -0.045648
v 1.413909 0.784225 -0.024648
v 1.413909 0.000000 -0.024648
v 1.413909 0.784225 -0.024648
v 0.929721 0.000000 -0.024648
v 1.413909 0.000000 -0.024648
v 0.929721 0.784225 -0.024648
v 0.929721 0.784225 -0.024648
v 1.413909 0.784225 -0.024648
v 0.929721 0.000000 -0.024648
v 1.413909 0.000000 -0.024648
v 1.413909 0.784225 -0.024648
v 0.929721 0.784225 -0.045648
v 0.929721 0.784225 -0.024648
v 1.413909 0.784225 -0.045648
v 1.413909 0.784225 -0.045648
v 1.413909 0.784225 -0.024648
v 0.929721 0.784225 -0.045648
v 0.929721 0.784225 -0.024648
v 1.402447 0.259113 -0.045648
v 1.402447 0.265273 -0.051809
v 1.402447 0.392112 -0.045648
v 1.402447 0.259113 -0.072648
v 1.402447 0.535112 -0.045648
v 1.402447 0.265273 -0.066488
v 1.402447 0.528952 -0.066488
v 1.402447 0.528952 -0.051809
v 1.402447 0.535112 -0.072648
v 1.402447 0.392112 -0.051809
v 1.402447 0.259113 -0.072648
v 1.402447 0.528952 -0.066488
v 1.402447 0.535112 -0.072648
v 1.402447 0.528952 -0.051809
v 1.402447 0.392112 -0.051809
v 1.402447 0.265273 -0.051809
v 1.402447 0.535112 -0.045648
v 1.402447 0.265273 -0.066488
v 1.402447 0.392112 -0.045648
v 1.402447 0.259113 -0.045648
v 1.402447 0.259113 -0.072648
v 1.390985 0.259113 -0.045648
v 1.390985 0.259113 -0.072648
v 1.402447 0.259113 -0.045648
v 1.402447 0.259113 -0.045648
v 1.402447 0.259113 -0.072648
v 1.390985 0.259113 -0.045648
v 1.390985 0.259113 -0.072648
v 1.390985 0.392112 -0.072648
v 1.390985 0.265273 -0.066488
v 1.390985 0.392112 -0.066488
v 1.390985 0.392112 -0.051809
v 1.390985 0.259113 -0.045648
v 1.390985 0.392112 -0.045648
v 1.390985 0.265273 -0.051809
v 1.390985 0.259113 -0.072648
v 1.390985 0.392112 -0.072648
v 1.390985 0.265273 -0.066488
v 1.390985 0.259113 -0.072648
v 1.390985 0.265273 -0.051809
v 1.390985 0.259113 -0.045648
v 1.390985 0.392112 -0.051809
v 1.390985 0.392112 -0.045648
v 1.390985 0.392112 -0.066488
v 1.368062 0.738378 -0.045648
v 1.368062 0.045847 -0.040648
v 1.368062 0.738378 -0.040648
v 1.368062 0.045847 -0.045648
v 1.368062 0.392112 -0.045648
v 1.368062 0.392112 -0.045648
v 1.368062 0.738378 -0.045648
v 1.368062 0.045847 -0.045648
v 1.368062 0.045847 -0.040648
v 1.368062 0.738378 -0.040648
v 1.368062 0.738378 -0.045648
v 0.975568 0.738378 -0.040648
v 0.975568 0.738378 -0.045648
v 1.368062 0.738378 -0.040648
v 1.368062 0.738378 -0.040648
v 1.368062 0.738378 -0.045648
v 0.975568 0.738378 -0.040648
v 0.975568 0.738378 -0.045648
v 0.975568 0.045847 -0.045648
v 0.975568 0.738378 -0.040648
v 0.975568 0.045847 -0.040648
v 0.975568 0.738378 -0.045648
v 0.975568 0.738378 -0.045648
v 0.975568 0.045847 -0.045648
v 0.975568 0.738378 -0.040648
v 0.975568 0.045847 -0.040648
v 1.368062 0.045847 -0.040648
v 0.975568 0.045847 -0.045648
v 0.975568 0.045847 -0.040648
v 1.368062 0.045847 -0.045648
v 1.368062 0.045847 -0.045648
v 1.368062 0.045847 -0.040648
v 0.975568 0.045847 -0.045648
v 0.975568 0.045847 -0.040648
v 1.390985 0.535112 -0.045648
v 1.390985 0.528952 -0.051809
v 1.390985 0.535112 -0.072648
v 1.390985 0.528952 -0.066488
v 1.390985 0.528952 -0.051809
v 1.390985 0.535112 -0.072648
v 1.390985 0.528952 -0.066488
v 1.390985 0.535112 -0.045648
v 1.402447 0.535112 -0.045648
v 1.390985 0.535112 -0.072648
v 1.390985 0.535112 -0.045648
v 1.402447 0.535112 -0.072648
v 1.402447 0.535112 -0.072648
v 1.402447 0.535112 -0.045648
v 1.390985 0.535112 -0.072648
v 1.390985 0.535112 -0.045648
v 1.390985 0.392112 -0.072648
v 1.402447 0.259113 -0.072648
v 1.390985 0.259113 -0.072648
v 1.402447 0.535112 -0.072648
v 1.390985 0.535112 -0.072648
v 1.390985 0.535112 -0.072648
v 1.390985 0.392112 -0.072648
v 1.402447 0.535112 -0.072648
v 1.402447 0.259113 -0.072648
v 1.390985 0.259113 -0.072648
v 1.390985 0.392112 -0.051809
v 1.402447 0.265273 -0.051809
v 1.390985 0.265273 -0.051809
v 1.402447 0.392112 -0.051809
v 1.402447 0.392112 -0.051809
v 1.390985 0.392112 -0.051809
v 1.402447 0.265273 -0.051809
v 1.390985 0.265273 -0.051809
v 1.402447 0.265273 -0.051809
v 1.390985 0.265273 -0.066488
v 1.390985 0.265273 -0.051809
v 1.402447 0.265273 -0.066488
v 1.402447 0.265273 -0.066488
v 1.402447 0.265273 -0.051809
v 1.390985 0.265273 -0.066488
v 1.390985 0.265273 -0.051809
v 1.402447 0.528952 -0.066488
v 1.390985 0.265273 -0.066488
v 1.402447 0.265273 -0.066488
v 1.390985 0.392112 -0.066488
v 1.390985 0.528952 -0.066488
v 1.390985 0.528952 -0.066488
v 1.402447 0.528952 -0.066488
v 1.390985 0.392112 -0.066488
v 1.390985 0.265273 -0.066488
v 1.402447 0.265273 -0.066488
v 0.975568 0.045847 -0.040648
v 1.021510 0.091789 -0.040648
v 1.368062 0.045847 -0.040648
v 0.975568 0.738378 -0.040648
v 1.021510 0.692436 -0.040648
v 1.322120 0.692436 -0.040648
v 1.322120 0.091789 -0.040648
v 1.368062 0.738378 -0.040648
v 0.975568 0.738378 -0.040648
v 1.322120 0.692436 -0.040648
v 1.368062 0.738378 -0.040648
v 1.322120 0.091789 -0.040648
v 1.021510 0.091789 -0.040648
v 1.368062 0.045847 -0.040648
v 1.021510 0.692436 -0.040648
v 0.975568 0.045847 -0.040648
v 1.402447 0.528952 -0.066488
v 1.390985 0.528952 -0.051809
v 1.390985 0.528952 -0.066488
v 1.402447 0.528952 -0.051809
v 1.402447 0.528952 -0.051809
v 1.402447 0.528952 -0.066488
v 1.390985 0.528952 -0.051809
v 1.390985 0.528952 -0.066488
v 1.390985 0.528952 -0.051809
v 1.402447 0.528952 -0.051809
v 1.402447 0.528952 -0.051809
v 1.390985 0.528952 -0.051809
vn -0.0000 -1.0000 -0.0000
vn -0.0000 1.0000 -0.0000
vn -1.0000 -0.0000 -0.0000
vn 1.0000 -0.0000 -0.0000
vn -0.0000 -0.0000 -1.0000
vn -0.0000 -0.0000 1.0000
vt -0.264757 0.011483
vt 0.000000 0.000000
vt 0.000000 0.011483
vt -0.264757 0.000000
vt -0.011483 0.428819
vt 0.000000 0.428819
vt -0.011483 0.000000
vt -0.252222 0.214410
vt -0.258490 0.141684
vt -0.252222 0.141684
vt -0.258490 0.214410
vt -0.252222 0.292603
vt -0.258490 0.292603
vt -0.264757 0.214410
vt -0.239687 0.025070
vt -0.025070 0.025070
vt -0.239687 0.403750
vt -0.239687 0.214410
vt -0.025070 0.403750
vt -0.264757 0.428819
vt 0.011483 0.000000
vt 0.011483 0.428819
vt 0.011483 0.214410
vt 0.264757 0.428819
vt 0.264757 0.000000
vt 0.264757 0.011483
vt 0.011483 0.141684
vt 0.014851 0.145053
vt 0.026247 0.141684
vt 0.011483 0.292603
vt 0.022878 0.145053
vt 0.022878 0.289234
vt 0.014851 0.289234
vt 0.026247 0.292603
vt 0.014851 0.214410
vt -0.258490 0.026247
vt -0.252222 0.011483
vt -0.252222 0.026247
vt -0.258490 0.011483
vt -0.026247 0.214410
vt -0.022878 0.145053
vt -0.022878 0.214410
vt -0.014851 0.214410
vt -0.011483 0.141684
vt -0.011483 0.214410
vt -0.014851 0.145053
vt -0.026247 0.141684
vt -0.011483 0.403750
vt -0.008749 0.025070
vt -0.008749 0.403750
vt -0.011483 0.025070
vt -0.239687 0.011483
vt -0.025070 0.008749
vt -0.025070 0.011483
vt -0.239687 0.008749
vt 0.011483 0.025070
vt 0.008749 0.403750
vt 0.008749 0.025070
vt 0.011483 0.403750
vt 0.239687 0.008749
vt 0.025070 0.011483
vt 0.025070 0.008749
vt 0.239687 0.011483
vt -0.011483 0.292603
vt -0.014851 0.289234
vt -0.026247 0.292603
vt -0.022878 0.289234
vt 0.258490 0.011483
vt 0.252222 0.026247
vt 0.252222 0.011483
vt 0.258490 0.026247
vt -0.258490 0.145053
vt -0.252222 0.145053
vt 0.258490 0.014851
vt 0.252222 0.022878
vt 0.252222 0.014851
vt 0.258490 0.022878
vt 0.258490 0.289234
vt 0.252222 0.145053
vt 0.258490 0.145053
vt 0.252222 0.214410
vt 0.252222 0.289234
vt -0.050191 0.050191
vt -0.050191 0.378629
vt -0.214566 0.378629
vt -0.214566 0.050191
vt -0.258490 0.022878
vt -0.252222 0.014851
vt -0.252222 0.022878
vt -0.258490 0.014851
vt -0.252222 0.289234
vt -0.258490 0.289234
s 0
usemtl Wood_Veneer_01
f 1/1/1 2/2/1 3/3/1
f 2/2/1 1/1/1 4/4/1
f 5/4/2 6/1/2 7/2/2
f 8/3/2 7/2/2 6/1/2
f 9/5/3 10/2/3 11/6/3
f 10/2/3 9/5/3 12/7/3
f 13/7/4 14/5/4 15/2/4
f 16/6/4 15/2/4 14/5/4
f 17/8/5 18/9/5 19/10/5
f 18/9/5 17/8/5 20/11/5
f 20/11/5 17/8/5 21/12/5
f 20/11/5 21/12/5 22/13/5
f 23/4/5 18/9/5 24/14/5
f 18/9/5 23/4/5 25/15/5
f 25/15/5 23/4/5 26/16/5
f 18/9/5 25/15/5 19/10/5
f 24/14/5 18/9/5 20/11/5
f 27/17/5 17/8/5 28/18/5
f 17/8/5 27/17/5 21/12/5
f 21/12/5 27/17/5 22/13/5
f 29/2/5 26/16/5 23/4/5
f 26/16/5 29/2/5 30/6/5
f 26/16/5 30/6/5 31/19/5
f 31/19/5 30/6/5 27/17/5
f 22/13/5 24/14/5 20/11/5
f 24/14/5 22/13/5 32/20/5
f 32/20/5 22/13/5 27/17/5
f 32/20/5 27/17/5 30/6/5
f 28/18/5 19/10/5 25/15/5
f 19/10/5 28/18/5 17/8/5
f 33/8/6 34/18/6 35/10/6
f 36/15/6 35/10/6 34/18/6
f 37/6/6 38/17/6 39/20/6
f 38/17/6 40/13/6 39/20/6
f 39/20/6 40/13/6 41/14/6
f 42/11/6 41/14/6 40/13/6
f 38/17/6 37/6/6 43/19/6
f 43/19/6 37/6/6 44/16/6
f 37/6/6 45/2/6 44/16/6
f 46/4/6 44/16/6 45/2/6
f 40/13/6 38/17/6 47/12/6
f 47/12/6 38/17/6 33/8/6
f 34/18/6 33/8/6 38/17/6
f 42/11/6 48/9/6 41/14/6
f 35/10/6 36/15/6 48/9/6
f 44/16/6 46/4/6 36/15/6
f 36/15/6 46/4/6 48/9/6
f 41/14/6 48/9/6 46/4/6
f 40/13/6 47/12/6 42/11/6
f 47/12/6 33/8/6 42/11/6
f 42/11/6 33/8/6 48/9/6
f 35/10/6 48/9/6 33/8/6
f 49/21/4 50/6/4 51/2/4
f 50/6/4 49/21/4 52/22/4
f 52/22/4 49/21/4 53/23/4
f 54/23/3 55/21/3 56/22/3
f 56/22/3 55/21/3 57/6/3
f 58/2/3 57/6/3 55/21/3
f 59/24/6 60/2/6 61/25/6
f 60/2/6 59/24/6 62/6/6
f 63/6/5 64/24/5 65/2/5
f 66/25/5 65/2/5 64/24/5
f 67/25/2 68/3/2 69/2/2
f 68/3/2 67/25/2 70/26/2
f 71/26/1 72/25/1 73/3/1
f 74/2/1 73/3/1 72/25/1
f 75/27/4 76/28/4 77/23/4
f 76/28/4 75/27/4 78/29/4
f 77/23/4 76/28/4 79/30/4
f 76/28/4 78/29/4 80/31/4
f 80/31/4 78/29/4 81/32/4
f 79/30/4 82/33/4 83/34/4
f 82/33/4 79/30/4 76/28/4
f 82/33/4 76/28/4 84/35/4
f 83/34/4 82/33/4 81/32/4
f 83/34/4 81/32/4 78/29/4
f 85/29/3 86/32/3 87/34/3
f 86/32/3 88/33/3 87/34/3
f 89/35/3 90/28/3 88/33/3
f 90/28/3 91/30/3 88/33/3
f 87/34/3 88/33/3 91/30/3
f 86/32/3 85/29/3 92/31/3
f 92/31/3 85/29/3 90/28/3
f 91/30/3 90/28/3 93/23/3
f 85/29/3 94/27/3 90/28/3
f 93/23/3 90/28/3 94/27/3
f 95/36/1 96/37/1 97/38/1
f 96/37/1 95/36/1 98/39/1
f 99/39/2 100/36/2 101/37/2
f 102/38/2 101/37/2 100/36/2
f 103/40/3 104/41/3 105/42/3
f 106/43/3 107/44/3 108/45/3
f 107/44/3 106/43/3 109/46/3
f 107/44/3 109/46/3 110/47/3
f 110/47/3 109/46/3 104/41/3
f 110/47/3 104/41/3 103/40/3
f 111/40/4 112/41/4 113/47/4
f 112/41/4 114/46/4 113/47/4
f 113/47/4 114/46/4 115/44/4
f 114/46/4 116/43/4 115/44/4
f 117/45/4 115/44/4 116/43/4
f 118/42/4 112/41/4 111/40/4
f 119/48/3 120/49/3 121/50/3
f 120/49/3 119/48/3 122/51/3
f 122/51/3 119/48/3 123/45/3
f 124/45/4 125/48/4 126/51/4
f 126/51/4 125/48/4 127/49/4
f 128/50/4 127/49/4 125/48/4
f 129/52/1 130/53/1 131/54/1
f 130/53/1 129/52/1 132/55/1
f 133/55/2 134/52/2 135/53/2
f 136/54/2 135/53/2 134/52/2
f 137/56/4 138/57/4 139/58/4
f 138/57/4 137/56/4 140/59/4
f 141/59/3 142/56/3 143/57/3
f 144/58/3 143/57/3 142/56/3
f 145/60/2 146/61/2 147/62/2
f 146/61/2 145/60/2 148/63/2
f 149/63/1 150/60/1 151/61/1
f 152/62/1 151/61/1 150/60/1
f 153/64/3 154/65/3 108/45/3
f 154/65/3 153/64/3 155/66/3
f 154/65/3 155/66/3 156/67/3
f 156/67/3 155/66/3 105/42/3
f 105/42/3 155/66/3 103/40/3
f 106/43/3 108/45/3 154/65/3
f 157/65/4 117/45/4 116/43/4
f 111/40/4 158/66/4 118/42/4
f 118/42/4 158/66/4 159/67/4
f 159/67/4 158/66/4 157/65/4
f 158/66/4 160/64/4 157/65/4
f 117/45/4 157/65/4 160/64/4
f 161/68/2 162/69/2 163/70/2
f 162/69/2 161/68/2 164/71/2
f 165/71/1 166/68/1 167/69/1
f 168/70/1 167/69/1 166/68/1
f 169/8/5 170/9/5 171/10/5
f 170/9/5 169/8/5 172/13/5
f 172/13/5 169/8/5 173/12/5
f 174/12/6 175/8/6 176/13/6
f 176/13/6 175/8/6 177/9/6
f 178/10/6 177/9/6 175/8/6
f 179/8/5 180/72/5 181/73/5
f 180/72/5 179/8/5 182/11/5
f 183/11/6 184/8/6 185/72/6
f 186/73/6 185/72/6 184/8/6
f 187/74/2 188/75/2 189/76/2
f 188/75/2 187/74/2 190/77/2
f 191/77/1 192/74/1 193/75/1
f 194/76/1 193/75/1 192/74/1
f 195/78/6 196/79/6 197/80/6
f 196/79/6 195/78/6 198/81/6
f 198/81/6 195/78/6 199/82/6
f 200/82/5 201/78/5 202/81/5
f 202/81/5 201/78/5 203/79/5
f 204/80/5 203/79/5 201/78/5
f 205/16/5 206/83/5 207/15/5
f 206/83/5 205/16/5 208/19/5
f 206/83/5 208/19/5 209/84/5
f 209/84/5 208/19/5 210/85/5
f 207/15/5 211/86/5 212/17/5
f 211/86/5 207/15/5 206/83/5
f 212/17/5 211/86/5 210/85/5
f 212/17/5 210/85/5 208/19/5
f 213/19/6 214/85/6 215/17/6
f 214/85/6 216/86/6 215/17/6
f 217/83/6 218/15/6 216/86/6
f 215/17/6 216/86/6 218/15/6
f 214/85/6 213/19/6 219/84/6
f 219/84/6 213/19/6 217/83/6
f 213/19/6 220/16/6 217/83/6
f 218/15/6 217/83/6 220/16/6
f 221/87/1 222/88/1 223/89/1
f 222/88/1 221/87/1 224/90/1
f 225/90/2 226/87/2 227/88/2
f 228/89/2 227/88/2 226/87/2
f 229/91/5 182/11/5 179/8/5
f 182/11/5 229/91/5 230/92/5
f 231/92/6 232/91/6 183/11/6
f 184/8/6 183/11/6 232/91/6
